solid OpenSCAD_Model
  facet normal -1 0 0
    outer loop
      vertex -8 -9 0
      vertex -8 9 8
      vertex -8 9 0
    endloop
  endfacet
  facet normal -1 -0 0
    outer loop
      vertex -8 9 8
      vertex -8 -9 0
      vertex -8 -9 8
    endloop
  endfacet
  facet normal 0 0 1
    outer loop
      vertex 1.61679 3.3303 3
      vertex 8 9 3
      vertex 1.69037 3.54707 3
    endloop
  endfacet
  facet normal 0 0 1
    outer loop
      vertex 8 -9 3
      vertex 1.73503 -3.77158 3
      vertex 1.75 -4 3
    endloop
  endfacet
  facet normal 0 0 1
    outer loop
      vertex 8 9 3
      vertex 1.61679 3.3303 3
      vertex 8 -9 3
    endloop
  endfacet
  facet normal 0 0 1
    outer loop
      vertex 8 -9 3
      vertex 1.69037 -3.54707 3
      vertex 1.73503 -3.77158 3
    endloop
  endfacet
  facet normal -0 0 1
    outer loop
      vertex 1.61679 -3.3303 3
      vertex 8 -9 3
      vertex 1.61679 3.3303 3
    endloop
  endfacet
  facet normal 0 0 1
    outer loop
      vertex 8 -9 3
      vertex 1.61679 -3.3303 3
      vertex 1.69037 -3.54707 3
    endloop
  endfacet
  facet normal -0 0 1
    outer loop
      vertex 1.51554 3.125 3
      vertex 1.61679 -3.3303 3
      vertex 1.61679 3.3303 3
    endloop
  endfacet
  facet normal 0 0 1
    outer loop
      vertex 1.51554 3.125 3
      vertex 1.51554 -3.125 3
      vertex 1.61679 -3.3303 3
    endloop
  endfacet
  facet normal -0 0 1
    outer loop
      vertex 1.38837 2.93467 3
      vertex 1.51554 -3.125 3
      vertex 1.51554 3.125 3
    endloop
  endfacet
  facet normal 0 0 1
    outer loop
      vertex 1.38837 2.93467 3
      vertex 1.38837 -2.93467 3
      vertex 1.51554 -3.125 3
    endloop
  endfacet
  facet normal -0 0 1
    outer loop
      vertex 1.23744 2.76256 3
      vertex 1.38837 -2.93467 3
      vertex 1.38837 2.93467 3
    endloop
  endfacet
  facet normal 0 0 1
    outer loop
      vertex 1.23744 2.76256 3
      vertex 1.23744 -2.76256 3
      vertex 1.38837 -2.93467 3
    endloop
  endfacet
  facet normal -0 0 1
    outer loop
      vertex 1.06533 2.61163 3
      vertex 1.23744 -2.76256 3
      vertex 1.23744 2.76256 3
    endloop
  endfacet
  facet normal 0 0 1
    outer loop
      vertex 1.06533 2.61163 3
      vertex 1.06533 -2.61163 3
      vertex 1.23744 -2.76256 3
    endloop
  endfacet
  facet normal -0 0 1
    outer loop
      vertex 0.875 2.48446 3
      vertex 1.06533 -2.61163 3
      vertex 1.06533 2.61163 3
    endloop
  endfacet
  facet normal 0 0 1
    outer loop
      vertex 0.875 2.48446 3
      vertex 0.875 -2.48446 3
      vertex 1.06533 -2.61163 3
    endloop
  endfacet
  facet normal -0 0 1
    outer loop
      vertex 0.669696 2.38321 3
      vertex 0.875 -2.48446 3
      vertex 0.875 2.48446 3
    endloop
  endfacet
  facet normal 0 0 1
    outer loop
      vertex 0.669696 2.38321 3
      vertex 0.669696 -2.38321 3
      vertex 0.875 -2.48446 3
    endloop
  endfacet
  facet normal -0 0 1
    outer loop
      vertex 0.452933 2.30963 3
      vertex 0.669696 -2.38321 3
      vertex 0.669696 2.38321 3
    endloop
  endfacet
  facet normal 0 0 1
    outer loop
      vertex 0.452933 2.30963 3
      vertex 0.452933 -2.30963 3
      vertex 0.669696 -2.38321 3
    endloop
  endfacet
  facet normal -0 0 1
    outer loop
      vertex 0.22842 2.26497 3
      vertex 0.452933 -2.30963 3
      vertex 0.452933 2.30963 3
    endloop
  endfacet
  facet normal 0 0 1
    outer loop
      vertex 0.22842 2.26497 3
      vertex 0.22842 -2.26497 3
      vertex 0.452933 -2.30963 3
    endloop
  endfacet
  facet normal -0 0 1
    outer loop
      vertex 0 2.25 3
      vertex 0.22842 -2.26497 3
      vertex 0.22842 2.26497 3
    endloop
  endfacet
  facet normal 0 0 1
    outer loop
      vertex 0 2.25 3
      vertex 0 -2.25 3
      vertex 0.22842 -2.26497 3
    endloop
  endfacet
  facet normal 0 0 1
    outer loop
      vertex -0.22842 2.26497 3
      vertex 0 -2.25 3
      vertex 0 2.25 3
    endloop
  endfacet
  facet normal 0 0 1
    outer loop
      vertex -0.22842 2.26497 3
      vertex -0.22842 -2.26497 3
      vertex 0 -2.25 3
    endloop
  endfacet
  facet normal 0 0 1
    outer loop
      vertex -0.452933 2.30963 3
      vertex -0.22842 -2.26497 3
      vertex -0.22842 2.26497 3
    endloop
  endfacet
  facet normal 0 0 1
    outer loop
      vertex -0.452933 2.30963 3
      vertex -0.452933 -2.30963 3
      vertex -0.22842 -2.26497 3
    endloop
  endfacet
  facet normal 0 0 1
    outer loop
      vertex -0.669696 2.38321 3
      vertex -0.452933 -2.30963 3
      vertex -0.452933 2.30963 3
    endloop
  endfacet
  facet normal 0 0 1
    outer loop
      vertex -0.669696 2.38321 3
      vertex -0.669696 -2.38321 3
      vertex -0.452933 -2.30963 3
    endloop
  endfacet
  facet normal 0 0 1
    outer loop
      vertex -0.875 2.48446 3
      vertex -0.669696 -2.38321 3
      vertex -0.669696 2.38321 3
    endloop
  endfacet
  facet normal 0 0 1
    outer loop
      vertex -0.875 2.48446 3
      vertex -0.875 -2.48446 3
      vertex -0.669696 -2.38321 3
    endloop
  endfacet
  facet normal 0 0 1
    outer loop
      vertex -1.06533 2.61163 3
      vertex -0.875 -2.48446 3
      vertex -0.875 2.48446 3
    endloop
  endfacet
  facet normal 0 0 1
    outer loop
      vertex -1.06533 2.61163 3
      vertex -1.06533 -2.61163 3
      vertex -0.875 -2.48446 3
    endloop
  endfacet
  facet normal 0 0 1
    outer loop
      vertex -1.23744 2.76256 3
      vertex -1.06533 -2.61163 3
      vertex -1.06533 2.61163 3
    endloop
  endfacet
  facet normal 0 0 1
    outer loop
      vertex -1.23744 2.76256 3
      vertex -1.23744 -2.76256 3
      vertex -1.06533 -2.61163 3
    endloop
  endfacet
  facet normal 0 0 1
    outer loop
      vertex -1.38837 2.93467 3
      vertex -1.23744 -2.76256 3
      vertex -1.23744 2.76256 3
    endloop
  endfacet
  facet normal 0 0 1
    outer loop
      vertex -1.38837 2.93467 3
      vertex -1.38837 -2.93467 3
      vertex -1.23744 -2.76256 3
    endloop
  endfacet
  facet normal 0 0 1
    outer loop
      vertex -1.51554 3.125 3
      vertex -1.38837 -2.93467 3
      vertex -1.38837 2.93467 3
    endloop
  endfacet
  facet normal 0 0 1
    outer loop
      vertex -1.51554 3.125 3
      vertex -1.51554 -3.125 3
      vertex -1.38837 -2.93467 3
    endloop
  endfacet
  facet normal 0 0 1
    outer loop
      vertex -1.61679 3.3303 3
      vertex -1.51554 -3.125 3
      vertex -1.51554 3.125 3
    endloop
  endfacet
  facet normal 0 0 1
    outer loop
      vertex -1.61679 3.3303 3
      vertex -1.61679 -3.3303 3
      vertex -1.51554 -3.125 3
    endloop
  endfacet
  facet normal 0 0 1
    outer loop
      vertex -1.69037 3.54707 3
      vertex -1.61679 -3.3303 3
      vertex -1.61679 3.3303 3
    endloop
  endfacet
  facet normal 0 0 1
    outer loop
      vertex -1.69037 3.54707 3
      vertex -1.69037 -3.54707 3
      vertex -1.61679 -3.3303 3
    endloop
  endfacet
  facet normal 0 0 1
    outer loop
      vertex -5 9 3
      vertex -1.69037 3.54707 3
      vertex -1.73503 3.77158 3
    endloop
  endfacet
  facet normal 0 0 1
    outer loop
      vertex -1.69037 3.54707 3
      vertex -5 9 3
      vertex -1.69037 -3.54707 3
    endloop
  endfacet
  facet normal 0 0 1
    outer loop
      vertex -5 9 3
      vertex -1.73503 3.77158 3
      vertex -1.75 4 3
    endloop
  endfacet
  facet normal 0 0 1
    outer loop
      vertex -5 -9 3
      vertex -1.69037 -3.54707 3
      vertex -5 9 3
    endloop
  endfacet
  facet normal 0 0 1
    outer loop
      vertex 1.73503 3.77158 3
      vertex 8 9 3
      vertex 1.75 4 3
    endloop
  endfacet
  facet normal 0 0 1
    outer loop
      vertex 8 9 3
      vertex 1.73503 4.22842 3
      vertex 1.75 4 3
    endloop
  endfacet
  facet normal 0 0 1
    outer loop
      vertex 8 9 3
      vertex 1.69037 4.45293 3
      vertex 1.73503 4.22842 3
    endloop
  endfacet
  facet normal 0 0 1
    outer loop
      vertex 8 9 3
      vertex 1.61679 4.6697 3
      vertex 1.69037 4.45293 3
    endloop
  endfacet
  facet normal 0 0 1
    outer loop
      vertex 8 9 3
      vertex 1.51554 4.875 3
      vertex 1.61679 4.6697 3
    endloop
  endfacet
  facet normal 0 0 1
    outer loop
      vertex 8 9 3
      vertex 1.38837 5.06533 3
      vertex 1.51554 4.875 3
    endloop
  endfacet
  facet normal 0 0 1
    outer loop
      vertex 8 9 3
      vertex 1.23744 5.23744 3
      vertex 1.38837 5.06533 3
    endloop
  endfacet
  facet normal 0 0 1
    outer loop
      vertex 8 9 3
      vertex 1.06533 5.38837 3
      vertex 1.23744 5.23744 3
    endloop
  endfacet
  facet normal 0 0 1
    outer loop
      vertex 8 9 3
      vertex 0.875 5.51554 3
      vertex 1.06533 5.38837 3
    endloop
  endfacet
  facet normal 0 0 1
    outer loop
      vertex 8 9 3
      vertex 0.669696 5.61679 3
      vertex 0.875 5.51554 3
    endloop
  endfacet
  facet normal 0 0 1
    outer loop
      vertex 8 9 3
      vertex 0.452933 5.69037 3
      vertex 0.669696 5.61679 3
    endloop
  endfacet
  facet normal 0 0 1
    outer loop
      vertex 8 9 3
      vertex 0.22842 5.73503 3
      vertex 0.452933 5.69037 3
    endloop
  endfacet
  facet normal -0 0 1
    outer loop
      vertex -5 9 3
      vertex 0.22842 5.73503 3
      vertex 8 9 3
    endloop
  endfacet
  facet normal 0 0 1
    outer loop
      vertex 0.22842 5.73503 3
      vertex -5 9 3
      vertex 0 5.75 3
    endloop
  endfacet
  facet normal 0 0 1
    outer loop
      vertex 0 5.75 3
      vertex -5 9 3
      vertex -0.22842 5.73503 3
    endloop
  endfacet
  facet normal 0 0 1
    outer loop
      vertex -0.22842 5.73503 3
      vertex -5 9 3
      vertex -0.452933 5.69037 3
    endloop
  endfacet
  facet normal 0 0 1
    outer loop
      vertex -1.69037 -3.54707 3
      vertex -5 -9 3
      vertex -1.73503 -3.77158 3
    endloop
  endfacet
  facet normal 0 0 1
    outer loop
      vertex -1.73503 4.22842 3
      vertex -5 9 3
      vertex -1.75 4 3
    endloop
  endfacet
  facet normal 0 0 1
    outer loop
      vertex -1.69037 4.45293 3
      vertex -5 9 3
      vertex -1.73503 4.22842 3
    endloop
  endfacet
  facet normal 0 0 1
    outer loop
      vertex -1.61679 4.6697 3
      vertex -5 9 3
      vertex -1.69037 4.45293 3
    endloop
  endfacet
  facet normal 0 0 1
    outer loop
      vertex -1.51554 4.875 3
      vertex -5 9 3
      vertex -1.61679 4.6697 3
    endloop
  endfacet
  facet normal 0 0 1
    outer loop
      vertex -1.38837 5.06533 3
      vertex -5 9 3
      vertex -1.51554 4.875 3
    endloop
  endfacet
  facet normal 0 0 1
    outer loop
      vertex -1.23744 5.23744 3
      vertex -5 9 3
      vertex -1.38837 5.06533 3
    endloop
  endfacet
  facet normal 0 0 1
    outer loop
      vertex -1.06533 5.38837 3
      vertex -5 9 3
      vertex -1.23744 5.23744 3
    endloop
  endfacet
  facet normal 0 0 1
    outer loop
      vertex -0.875 5.51554 3
      vertex -5 9 3
      vertex -1.06533 5.38837 3
    endloop
  endfacet
  facet normal 0 0 1
    outer loop
      vertex -0.669696 5.61679 3
      vertex -5 9 3
      vertex -0.875 5.51554 3
    endloop
  endfacet
  facet normal 0 0 1
    outer loop
      vertex -0.452933 5.69037 3
      vertex -5 9 3
      vertex -0.669696 5.61679 3
    endloop
  endfacet
  facet normal 0 0 1
    outer loop
      vertex 1.69037 3.54707 3
      vertex 8 9 3
      vertex 1.73503 3.77158 3
    endloop
  endfacet
  facet normal -0 0 1
    outer loop
      vertex 1.73503 -4.22842 3
      vertex 8 -9 3
      vertex 1.75 -4 3
    endloop
  endfacet
  facet normal -0 0 1
    outer loop
      vertex 1.69037 -4.45293 3
      vertex 8 -9 3
      vertex 1.73503 -4.22842 3
    endloop
  endfacet
  facet normal -0 0 1
    outer loop
      vertex 1.61679 -4.6697 3
      vertex 8 -9 3
      vertex 1.69037 -4.45293 3
    endloop
  endfacet
  facet normal -0 0 1
    outer loop
      vertex 1.51554 -4.875 3
      vertex 8 -9 3
      vertex 1.61679 -4.6697 3
    endloop
  endfacet
  facet normal -0 0 1
    outer loop
      vertex 1.38837 -5.06533 3
      vertex 8 -9 3
      vertex 1.51554 -4.875 3
    endloop
  endfacet
  facet normal -0 0 1
    outer loop
      vertex 1.23744 -5.23744 3
      vertex 8 -9 3
      vertex 1.38837 -5.06533 3
    endloop
  endfacet
  facet normal -0 0 1
    outer loop
      vertex 1.06533 -5.38837 3
      vertex 8 -9 3
      vertex 1.23744 -5.23744 3
    endloop
  endfacet
  facet normal -0 0 1
    outer loop
      vertex 0.875 -5.51554 3
      vertex 8 -9 3
      vertex 1.06533 -5.38837 3
    endloop
  endfacet
  facet normal -0 0 1
    outer loop
      vertex 0.669696 -5.61679 3
      vertex 8 -9 3
      vertex 0.875 -5.51554 3
    endloop
  endfacet
  facet normal -0 0 1
    outer loop
      vertex 0.452933 -5.69037 3
      vertex 8 -9 3
      vertex 0.669696 -5.61679 3
    endloop
  endfacet
  facet normal -0 0 1
    outer loop
      vertex 0.22842 -5.73503 3
      vertex 8 -9 3
      vertex 0.452933 -5.69037 3
    endloop
  endfacet
  facet normal 0 0 1
    outer loop
      vertex -5 -9 3
      vertex 0.22842 -5.73503 3
      vertex 0 -5.75 3
    endloop
  endfacet
  facet normal 0 0 1
    outer loop
      vertex -5 -9 3
      vertex 0 -5.75 3
      vertex -0.22842 -5.73503 3
    endloop
  endfacet
  facet normal 0 0 1
    outer loop
      vertex -5 -9 3
      vertex -0.22842 -5.73503 3
      vertex -0.452933 -5.69037 3
    endloop
  endfacet
  facet normal 0 0 1
    outer loop
      vertex -5 -9 3
      vertex -0.452933 -5.69037 3
      vertex -0.669696 -5.61679 3
    endloop
  endfacet
  facet normal 0 0 1
    outer loop
      vertex -1.73503 -3.77158 3
      vertex -5 -9 3
      vertex -1.75 -4 3
    endloop
  endfacet
  facet normal 0 0 1
    outer loop
      vertex -1.75 -4 3
      vertex -5 -9 3
      vertex -1.73503 -4.22842 3
    endloop
  endfacet
  facet normal 0 0 1
    outer loop
      vertex 0.22842 -5.73503 3
      vertex -5 -9 3
      vertex 8 -9 3
    endloop
  endfacet
  facet normal 0 0 1
    outer loop
      vertex -0.875 -5.51554 3
      vertex -5 -9 3
      vertex -0.669696 -5.61679 3
    endloop
  endfacet
  facet normal 0 0 1
    outer loop
      vertex -1.06533 -5.38837 3
      vertex -5 -9 3
      vertex -0.875 -5.51554 3
    endloop
  endfacet
  facet normal 0 0 1
    outer loop
      vertex -1.23744 -5.23744 3
      vertex -5 -9 3
      vertex -1.06533 -5.38837 3
    endloop
  endfacet
  facet normal 0 0 1
    outer loop
      vertex -1.38837 -5.06533 3
      vertex -5 -9 3
      vertex -1.23744 -5.23744 3
    endloop
  endfacet
  facet normal 0 0 1
    outer loop
      vertex -1.51554 -4.875 3
      vertex -5 -9 3
      vertex -1.38837 -5.06533 3
    endloop
  endfacet
  facet normal 0 0 1
    outer loop
      vertex -1.61679 -4.6697 3
      vertex -5 -9 3
      vertex -1.51554 -4.875 3
    endloop
  endfacet
  facet normal 0 0 1
    outer loop
      vertex -1.69037 -4.45293 3
      vertex -5 -9 3
      vertex -1.61679 -4.6697 3
    endloop
  endfacet
  facet normal 0 0 1
    outer loop
      vertex -1.73503 -4.22842 3
      vertex -5 -9 3
      vertex -1.69037 -4.45293 3
    endloop
  endfacet
  facet normal 1 -0 0
    outer loop
      vertex 8 -9 3
      vertex 8 9 0
      vertex 8 9 3
    endloop
  endfacet
  facet normal 1 0 0
    outer loop
      vertex 8 9 0
      vertex 8 -9 3
      vertex 8 -9 0
    endloop
  endfacet
  facet normal 0 0 -1
    outer loop
      vertex 1.61679 -3.3303 0
      vertex 8 -9 0
      vertex 1.69037 -3.54707 0
    endloop
  endfacet
  facet normal 0 0 -1
    outer loop
      vertex 8 9 0
      vertex 1.73503 3.77158 0
      vertex 1.75 4 0
    endloop
  endfacet
  facet normal 0 0 -1
    outer loop
      vertex 8 -9 0
      vertex 1.61679 -3.3303 0
      vertex 8 9 0
    endloop
  endfacet
  facet normal 0 0 -1
    outer loop
      vertex 8 9 0
      vertex 1.69037 3.54707 0
      vertex 1.73503 3.77158 0
    endloop
  endfacet
  facet normal 0 0 -1
    outer loop
      vertex 1.61679 3.3303 0
      vertex 8 9 0
      vertex 1.61679 -3.3303 0
    endloop
  endfacet
  facet normal 0 0 -1
    outer loop
      vertex 8 9 0
      vertex 1.61679 3.3303 0
      vertex 1.69037 3.54707 0
    endloop
  endfacet
  facet normal 0 0 -1
    outer loop
      vertex 1.51554 -3.125 0
      vertex 1.61679 3.3303 0
      vertex 1.61679 -3.3303 0
    endloop
  endfacet
  facet normal 0 0 -1
    outer loop
      vertex 1.51554 -3.125 0
      vertex 1.51554 3.125 0
      vertex 1.61679 3.3303 0
    endloop
  endfacet
  facet normal 0 0 -1
    outer loop
      vertex 1.38837 -2.93467 0
      vertex 1.51554 3.125 0
      vertex 1.51554 -3.125 0
    endloop
  endfacet
  facet normal 0 0 -1
    outer loop
      vertex 1.38837 -2.93467 0
      vertex 1.38837 2.93467 0
      vertex 1.51554 3.125 0
    endloop
  endfacet
  facet normal 0 0 -1
    outer loop
      vertex 1.23744 -2.76256 0
      vertex 1.38837 2.93467 0
      vertex 1.38837 -2.93467 0
    endloop
  endfacet
  facet normal 0 0 -1
    outer loop
      vertex 1.23744 -2.76256 0
      vertex 1.23744 2.76256 0
      vertex 1.38837 2.93467 0
    endloop
  endfacet
  facet normal 0 0 -1
    outer loop
      vertex 1.06533 -2.61163 0
      vertex 1.23744 2.76256 0
      vertex 1.23744 -2.76256 0
    endloop
  endfacet
  facet normal 0 0 -1
    outer loop
      vertex 1.06533 -2.61163 0
      vertex 1.06533 2.61163 0
      vertex 1.23744 2.76256 0
    endloop
  endfacet
  facet normal 0 0 -1
    outer loop
      vertex 0.875 -2.48446 0
      vertex 1.06533 2.61163 0
      vertex 1.06533 -2.61163 0
    endloop
  endfacet
  facet normal 0 0 -1
    outer loop
      vertex 0.875 -2.48446 0
      vertex 0.875 2.48446 0
      vertex 1.06533 2.61163 0
    endloop
  endfacet
  facet normal 0 0 -1
    outer loop
      vertex 0.669696 -2.38321 0
      vertex 0.875 2.48446 0
      vertex 0.875 -2.48446 0
    endloop
  endfacet
  facet normal 0 0 -1
    outer loop
      vertex 0.669696 -2.38321 0
      vertex 0.669696 2.38321 0
      vertex 0.875 2.48446 0
    endloop
  endfacet
  facet normal 0 0 -1
    outer loop
      vertex 0.452933 -2.30963 0
      vertex 0.669696 2.38321 0
      vertex 0.669696 -2.38321 0
    endloop
  endfacet
  facet normal 0 0 -1
    outer loop
      vertex 0.452933 -2.30963 0
      vertex 0.452933 2.30963 0
      vertex 0.669696 2.38321 0
    endloop
  endfacet
  facet normal 0 0 -1
    outer loop
      vertex 0.22842 -2.26497 0
      vertex 0.452933 2.30963 0
      vertex 0.452933 -2.30963 0
    endloop
  endfacet
  facet normal 0 0 -1
    outer loop
      vertex 0.22842 -2.26497 0
      vertex 0.22842 2.26497 0
      vertex 0.452933 2.30963 0
    endloop
  endfacet
  facet normal 0 0 -1
    outer loop
      vertex 0 -2.25 0
      vertex 0.22842 2.26497 0
      vertex 0.22842 -2.26497 0
    endloop
  endfacet
  facet normal 0 0 -1
    outer loop
      vertex 0 -2.25 0
      vertex 0 2.25 0
      vertex 0.22842 2.26497 0
    endloop
  endfacet
  facet normal 0 0 -1
    outer loop
      vertex -0.22842 -2.26497 0
      vertex 0 2.25 0
      vertex 0 -2.25 0
    endloop
  endfacet
  facet normal 0 0 -1
    outer loop
      vertex -0.22842 -2.26497 0
      vertex -0.22842 2.26497 0
      vertex 0 2.25 0
    endloop
  endfacet
  facet normal 0 0 -1
    outer loop
      vertex -0.452933 -2.30963 0
      vertex -0.22842 2.26497 0
      vertex -0.22842 -2.26497 0
    endloop
  endfacet
  facet normal 0 0 -1
    outer loop
      vertex -0.452933 -2.30963 0
      vertex -0.452933 2.30963 0
      vertex -0.22842 2.26497 0
    endloop
  endfacet
  facet normal 0 0 -1
    outer loop
      vertex -0.669696 -2.38321 0
      vertex -0.452933 2.30963 0
      vertex -0.452933 -2.30963 0
    endloop
  endfacet
  facet normal 0 0 -1
    outer loop
      vertex -0.669696 -2.38321 0
      vertex -0.669696 2.38321 0
      vertex -0.452933 2.30963 0
    endloop
  endfacet
  facet normal 0 0 -1
    outer loop
      vertex -0.875 -2.48446 0
      vertex -0.669696 2.38321 0
      vertex -0.669696 -2.38321 0
    endloop
  endfacet
  facet normal 0 0 -1
    outer loop
      vertex -0.875 -2.48446 0
      vertex -0.875 2.48446 0
      vertex -0.669696 2.38321 0
    endloop
  endfacet
  facet normal 0 0 -1
    outer loop
      vertex -1.06533 -2.61163 0
      vertex -0.875 2.48446 0
      vertex -0.875 -2.48446 0
    endloop
  endfacet
  facet normal 0 0 -1
    outer loop
      vertex -1.06533 -2.61163 0
      vertex -1.06533 2.61163 0
      vertex -0.875 2.48446 0
    endloop
  endfacet
  facet normal 0 0 -1
    outer loop
      vertex -1.23744 -2.76256 0
      vertex -1.06533 2.61163 0
      vertex -1.06533 -2.61163 0
    endloop
  endfacet
  facet normal 0 0 -1
    outer loop
      vertex -1.23744 -2.76256 0
      vertex -1.23744 2.76256 0
      vertex -1.06533 2.61163 0
    endloop
  endfacet
  facet normal 0 0 -1
    outer loop
      vertex -1.38837 -2.93467 0
      vertex -1.23744 2.76256 0
      vertex -1.23744 -2.76256 0
    endloop
  endfacet
  facet normal 0 0 -1
    outer loop
      vertex -1.38837 -2.93467 0
      vertex -1.38837 2.93467 0
      vertex -1.23744 2.76256 0
    endloop
  endfacet
  facet normal 0 0 -1
    outer loop
      vertex -1.51554 -3.125 0
      vertex -1.38837 2.93467 0
      vertex -1.38837 -2.93467 0
    endloop
  endfacet
  facet normal 0 0 -1
    outer loop
      vertex -1.51554 -3.125 0
      vertex -1.51554 3.125 0
      vertex -1.38837 2.93467 0
    endloop
  endfacet
  facet normal 0 0 -1
    outer loop
      vertex -1.61679 -3.3303 0
      vertex -1.51554 3.125 0
      vertex -1.51554 -3.125 0
    endloop
  endfacet
  facet normal 0 0 -1
    outer loop
      vertex -1.61679 -3.3303 0
      vertex -1.61679 3.3303 0
      vertex -1.51554 3.125 0
    endloop
  endfacet
  facet normal 0 0 -1
    outer loop
      vertex -8 -9 0
      vertex -1.61679 -3.3303 0
      vertex -1.69037 -3.54707 0
    endloop
  endfacet
  facet normal -0 0 -1
    outer loop
      vertex -1.61679 -3.3303 0
      vertex -8 -9 0
      vertex -1.61679 3.3303 0
    endloop
  endfacet
  facet normal 0 0 -1
    outer loop
      vertex -8 -9 0
      vertex -1.69037 -3.54707 0
      vertex -1.73503 -3.77158 0
    endloop
  endfacet
  facet normal 0 0 -1
    outer loop
      vertex -8 9 0
      vertex -1.61679 3.3303 0
      vertex -8 -9 0
    endloop
  endfacet
  facet normal 0 0 -1
    outer loop
      vertex -8 -9 0
      vertex -1.73503 -3.77158 0
      vertex -1.75 -4 0
    endloop
  endfacet
  facet normal 0 0 -1
    outer loop
      vertex -1.61679 3.3303 0
      vertex -8 9 0
      vertex -1.69037 3.54707 0
    endloop
  endfacet
  facet normal 0 0 -1
    outer loop
      vertex 1.73503 -3.77158 0
      vertex 8 -9 0
      vertex 1.75 -4 0
    endloop
  endfacet
  facet normal 0 0 -1
    outer loop
      vertex 8 -9 0
      vertex 1.73503 -4.22842 0
      vertex 1.75 -4 0
    endloop
  endfacet
  facet normal 0 0 -1
    outer loop
      vertex 8 -9 0
      vertex 1.69037 -4.45293 0
      vertex 1.73503 -4.22842 0
    endloop
  endfacet
  facet normal 0 0 -1
    outer loop
      vertex 8 -9 0
      vertex 1.61679 -4.6697 0
      vertex 1.69037 -4.45293 0
    endloop
  endfacet
  facet normal 0 0 -1
    outer loop
      vertex 8 -9 0
      vertex 1.51554 -4.875 0
      vertex 1.61679 -4.6697 0
    endloop
  endfacet
  facet normal 0 0 -1
    outer loop
      vertex 8 -9 0
      vertex 1.38837 -5.06533 0
      vertex 1.51554 -4.875 0
    endloop
  endfacet
  facet normal 0 0 -1
    outer loop
      vertex 8 -9 0
      vertex 1.23744 -5.23744 0
      vertex 1.38837 -5.06533 0
    endloop
  endfacet
  facet normal 0 0 -1
    outer loop
      vertex 8 -9 0
      vertex 1.06533 -5.38837 0
      vertex 1.23744 -5.23744 0
    endloop
  endfacet
  facet normal 0 0 -1
    outer loop
      vertex 8 -9 0
      vertex 0.875 -5.51554 0
      vertex 1.06533 -5.38837 0
    endloop
  endfacet
  facet normal 0 0 -1
    outer loop
      vertex 8 -9 0
      vertex 0.669696 -5.61679 0
      vertex 0.875 -5.51554 0
    endloop
  endfacet
  facet normal 0 0 -1
    outer loop
      vertex 8 -9 0
      vertex 0.452933 -5.69037 0
      vertex 0.669696 -5.61679 0
    endloop
  endfacet
  facet normal 0 0 -1
    outer loop
      vertex 8 -9 0
      vertex 0.22842 -5.73503 0
      vertex 0.452933 -5.69037 0
    endloop
  endfacet
  facet normal 0 0 -1
    outer loop
      vertex 8 -9 0
      vertex 0 -5.75 0
      vertex 0.22842 -5.73503 0
    endloop
  endfacet
  facet normal 0 0 -1
    outer loop
      vertex -8 -9 0
      vertex 0 -5.75 0
      vertex 8 -9 0
    endloop
  endfacet
  facet normal -0 0 -1
    outer loop
      vertex 0 -5.75 0
      vertex -8 -9 0
      vertex -0.22842 -5.73503 0
    endloop
  endfacet
  facet normal -0 0 -1
    outer loop
      vertex -0.22842 -5.73503 0
      vertex -8 -9 0
      vertex -0.452933 -5.69037 0
    endloop
  endfacet
  facet normal 0 0 -1
    outer loop
      vertex -1.69037 3.54707 0
      vertex -8 9 0
      vertex -1.73503 3.77158 0
    endloop
  endfacet
  facet normal -0 0 -1
    outer loop
      vertex -1.73503 -4.22842 0
      vertex -8 -9 0
      vertex -1.75 -4 0
    endloop
  endfacet
  facet normal -0 0 -1
    outer loop
      vertex -1.69037 -4.45293 0
      vertex -8 -9 0
      vertex -1.73503 -4.22842 0
    endloop
  endfacet
  facet normal -0 0 -1
    outer loop
      vertex -1.61679 -4.6697 0
      vertex -8 -9 0
      vertex -1.69037 -4.45293 0
    endloop
  endfacet
  facet normal -0 0 -1
    outer loop
      vertex -1.51554 -4.875 0
      vertex -8 -9 0
      vertex -1.61679 -4.6697 0
    endloop
  endfacet
  facet normal -0 0 -1
    outer loop
      vertex -1.38837 -5.06533 0
      vertex -8 -9 0
      vertex -1.51554 -4.875 0
    endloop
  endfacet
  facet normal -0 0 -1
    outer loop
      vertex -1.23744 -5.23744 0
      vertex -8 -9 0
      vertex -1.38837 -5.06533 0
    endloop
  endfacet
  facet normal -0 0 -1
    outer loop
      vertex -1.06533 -5.38837 0
      vertex -8 -9 0
      vertex -1.23744 -5.23744 0
    endloop
  endfacet
  facet normal -0 0 -1
    outer loop
      vertex -0.875 -5.51554 0
      vertex -8 -9 0
      vertex -1.06533 -5.38837 0
    endloop
  endfacet
  facet normal -0 0 -1
    outer loop
      vertex -0.669696 -5.61679 0
      vertex -8 -9 0
      vertex -0.875 -5.51554 0
    endloop
  endfacet
  facet normal -0 0 -1
    outer loop
      vertex -0.452933 -5.69037 0
      vertex -8 -9 0
      vertex -0.669696 -5.61679 0
    endloop
  endfacet
  facet normal 0 0 -1
    outer loop
      vertex 1.69037 -3.54707 0
      vertex 8 -9 0
      vertex 1.73503 -3.77158 0
    endloop
  endfacet
  facet normal 0 0 -1
    outer loop
      vertex 1.73503 4.22842 0
      vertex 8 9 0
      vertex 1.75 4 0
    endloop
  endfacet
  facet normal 0 0 -1
    outer loop
      vertex 1.69037 4.45293 0
      vertex 8 9 0
      vertex 1.73503 4.22842 0
    endloop
  endfacet
  facet normal 0 0 -1
    outer loop
      vertex 1.61679 4.6697 0
      vertex 8 9 0
      vertex 1.69037 4.45293 0
    endloop
  endfacet
  facet normal 0 0 -1
    outer loop
      vertex 1.51554 4.875 0
      vertex 8 9 0
      vertex 1.61679 4.6697 0
    endloop
  endfacet
  facet normal 0 0 -1
    outer loop
      vertex 1.38837 5.06533 0
      vertex 8 9 0
      vertex 1.51554 4.875 0
    endloop
  endfacet
  facet normal 0 0 -1
    outer loop
      vertex 1.23744 5.23744 0
      vertex 8 9 0
      vertex 1.38837 5.06533 0
    endloop
  endfacet
  facet normal 0 0 -1
    outer loop
      vertex 1.06533 5.38837 0
      vertex 8 9 0
      vertex 1.23744 5.23744 0
    endloop
  endfacet
  facet normal 0 0 -1
    outer loop
      vertex 0.875 5.51554 0
      vertex 8 9 0
      vertex 1.06533 5.38837 0
    endloop
  endfacet
  facet normal 0 0 -1
    outer loop
      vertex 0.669696 5.61679 0
      vertex 8 9 0
      vertex 0.875 5.51554 0
    endloop
  endfacet
  facet normal 0 0 -1
    outer loop
      vertex 0.452933 5.69037 0
      vertex 8 9 0
      vertex 0.669696 5.61679 0
    endloop
  endfacet
  facet normal 0 0 -1
    outer loop
      vertex 0.22842 5.73503 0
      vertex 8 9 0
      vertex 0.452933 5.69037 0
    endloop
  endfacet
  facet normal 0 0 -1
    outer loop
      vertex 0 5.75 0
      vertex 8 9 0
      vertex 0.22842 5.73503 0
    endloop
  endfacet
  facet normal 0 0 -1
    outer loop
      vertex -8 9 0
      vertex 0 5.75 0
      vertex -0.22842 5.73503 0
    endloop
  endfacet
  facet normal 0 0 -1
    outer loop
      vertex -8 9 0
      vertex -0.22842 5.73503 0
      vertex -0.452933 5.69037 0
    endloop
  endfacet
  facet normal 0 0 -1
    outer loop
      vertex -8 9 0
      vertex -0.452933 5.69037 0
      vertex -0.669696 5.61679 0
    endloop
  endfacet
  facet normal 0 0 -1
    outer loop
      vertex -1.73503 3.77158 0
      vertex -8 9 0
      vertex -1.75 4 0
    endloop
  endfacet
  facet normal 0 0 -1
    outer loop
      vertex -1.75 4 0
      vertex -8 9 0
      vertex -1.73503 4.22842 0
    endloop
  endfacet
  facet normal 0 0 -1
    outer loop
      vertex -1.73503 4.22842 0
      vertex -8 9 0
      vertex -1.69037 4.45293 0
    endloop
  endfacet
  facet normal 0 0 -1
    outer loop
      vertex 0 5.75 0
      vertex -8 9 0
      vertex 8 9 0
    endloop
  endfacet
  facet normal 0 0 -1
    outer loop
      vertex -0.875 5.51554 0
      vertex -8 9 0
      vertex -0.669696 5.61679 0
    endloop
  endfacet
  facet normal 0 0 -1
    outer loop
      vertex -1.06533 5.38837 0
      vertex -8 9 0
      vertex -0.875 5.51554 0
    endloop
  endfacet
  facet normal 0 0 -1
    outer loop
      vertex -1.23744 5.23744 0
      vertex -8 9 0
      vertex -1.06533 5.38837 0
    endloop
  endfacet
  facet normal 0 0 -1
    outer loop
      vertex -1.38837 5.06533 0
      vertex -8 9 0
      vertex -1.23744 5.23744 0
    endloop
  endfacet
  facet normal 0 0 -1
    outer loop
      vertex -1.51554 4.875 0
      vertex -8 9 0
      vertex -1.38837 5.06533 0
    endloop
  endfacet
  facet normal 0 0 -1
    outer loop
      vertex -1.61679 4.6697 0
      vertex -8 9 0
      vertex -1.51554 4.875 0
    endloop
  endfacet
  facet normal 0 0 -1
    outer loop
      vertex -1.69037 4.45293 0
      vertex -8 9 0
      vertex -1.61679 4.6697 0
    endloop
  endfacet
  facet normal 0 -1 0
    outer loop
      vertex -8 -9 8
      vertex -5 -9 3
      vertex -5 -9 8
    endloop
  endfacet
  facet normal 0 -1 0
    outer loop
      vertex -8 -9 0
      vertex -5 -9 3
      vertex -8 -9 8
    endloop
  endfacet
  facet normal 0 -1 0
    outer loop
      vertex 8 -9 0
      vertex -5 -9 3
      vertex -8 -9 0
    endloop
  endfacet
  facet normal 0 -1 0
    outer loop
      vertex -5 -9 3
      vertex 8 -9 0
      vertex 8 -9 3
    endloop
  endfacet
  facet normal 0 1 0
    outer loop
      vertex 8 9 3
      vertex 8 9 0
      vertex -5 9 3
    endloop
  endfacet
  facet normal 0 1 -0
    outer loop
      vertex -5 9 3
      vertex -8 9 8
      vertex -5 9 8
    endloop
  endfacet
  facet normal 0 1 0
    outer loop
      vertex -5 9 3
      vertex -8 9 0
      vertex -8 9 8
    endloop
  endfacet
  facet normal 0 1 0
    outer loop
      vertex -8 9 0
      vertex -5 9 3
      vertex 8 9 0
    endloop
  endfacet
  facet normal -0 0 1
    outer loop
      vertex -8 9 8
      vertex -5 -9 8
      vertex -5 9 8
    endloop
  endfacet
  facet normal 0 0 1
    outer loop
      vertex -5 -9 8
      vertex -8 9 8
      vertex -8 -9 8
    endloop
  endfacet
  facet normal 1 -0 0
    outer loop
      vertex -5 -9 8
      vertex -5 9 3
      vertex -5 9 8
    endloop
  endfacet
  facet normal 1 0 0
    outer loop
      vertex -5 9 3
      vertex -5 -9 8
      vertex -5 -9 3
    endloop
  endfacet
  facet normal -0.555557 -0.831479 0
    outer loop
      vertex 0.875 -2.48446 0
      vertex 1.06533 -2.61163 3
      vertex 0.875 -2.48446 3
    endloop
  endfacet
  facet normal -0.555557 -0.831479 -0
    outer loop
      vertex 1.06533 -2.61163 3
      vertex 0.875 -2.48446 0
      vertex 1.06533 -2.61163 0
    endloop
  endfacet
  facet normal 0.442307 -0.896864 0
    outer loop
      vertex -0.875 -2.48446 0
      vertex -0.669696 -2.38321 3
      vertex -0.875 -2.48446 3
    endloop
  endfacet
  facet normal 0.442307 -0.896864 0
    outer loop
      vertex -0.669696 -2.38321 3
      vertex -0.875 -2.48446 0
      vertex -0.669696 -2.38321 0
    endloop
  endfacet
  facet normal 0.89686 -0.442314 0
    outer loop
      vertex -1.61679 -3.3303 3
      vertex -1.51554 -3.125 0
      vertex -1.51554 -3.125 3
    endloop
  endfacet
  facet normal 0.89686 -0.442314 0
    outer loop
      vertex -1.51554 -3.125 0
      vertex -1.61679 -3.3303 3
      vertex -1.61679 -3.3303 0
    endloop
  endfacet
  facet normal -0.89686 -0.442314 0
    outer loop
      vertex 1.61679 -3.3303 0
      vertex 1.51554 -3.125 3
      vertex 1.51554 -3.125 0
    endloop
  endfacet
  facet normal -0.89686 -0.442314 0
    outer loop
      vertex 1.51554 -3.125 3
      vertex 1.61679 -3.3303 0
      vertex 1.61679 -3.3303 3
    endloop
  endfacet
  facet normal -0.831479 -0.555557 0
    outer loop
      vertex 1.51554 -3.125 0
      vertex 1.38837 -2.93467 3
      vertex 1.38837 -2.93467 0
    endloop
  endfacet
  facet normal -0.831479 -0.555557 0
    outer loop
      vertex 1.38837 -2.93467 3
      vertex 1.51554 -3.125 0
      vertex 1.51554 -3.125 3
    endloop
  endfacet
  facet normal -0.321435 -0.946932 0
    outer loop
      vertex 0.452933 -2.30963 0
      vertex 0.669696 -2.38321 3
      vertex 0.452933 -2.30963 3
    endloop
  endfacet
  facet normal -0.321435 -0.946932 -0
    outer loop
      vertex 0.669696 -2.38321 3
      vertex 0.452933 -2.30963 0
      vertex 0.669696 -2.38321 0
    endloop
  endfacet
  facet normal -0.195097 -0.980784 0
    outer loop
      vertex 0.22842 -2.26497 0
      vertex 0.452933 -2.30963 3
      vertex 0.22842 -2.26497 3
    endloop
  endfacet
  facet normal -0.195097 -0.980784 -0
    outer loop
      vertex 0.452933 -2.30963 3
      vertex 0.22842 -2.26497 0
      vertex 0.452933 -2.30963 0
    endloop
  endfacet
  facet normal -0.0653969 -0.997859 0
    outer loop
      vertex 0 -2.25 0
      vertex 0.22842 -2.26497 3
      vertex 0 -2.25 3
    endloop
  endfacet
  facet normal -0.0653969 -0.997859 -0
    outer loop
      vertex 0.22842 -2.26497 3
      vertex 0 -2.25 0
      vertex 0.22842 -2.26497 0
    endloop
  endfacet
  facet normal 0.997859 -0.0653969 0
    outer loop
      vertex -1.75 -4 3
      vertex -1.73503 -3.77158 0
      vertex -1.73503 -3.77158 3
    endloop
  endfacet
  facet normal 0.997859 -0.0653969 0
    outer loop
      vertex -1.73503 -3.77158 0
      vertex -1.75 -4 3
      vertex -1.75 -4 0
    endloop
  endfacet
  facet normal 0.831479 -0.555557 0
    outer loop
      vertex -1.51554 -3.125 3
      vertex -1.38837 -2.93467 0
      vertex -1.38837 -2.93467 3
    endloop
  endfacet
  facet normal 0.831479 -0.555557 0
    outer loop
      vertex -1.38837 -2.93467 0
      vertex -1.51554 -3.125 3
      vertex -1.51554 -3.125 0
    endloop
  endfacet
  facet normal 0.555557 -0.831479 0
    outer loop
      vertex -1.06533 -2.61163 0
      vertex -0.875 -2.48446 3
      vertex -1.06533 -2.61163 3
    endloop
  endfacet
  facet normal 0.555557 -0.831479 0
    outer loop
      vertex -0.875 -2.48446 3
      vertex -1.06533 -2.61163 0
      vertex -0.875 -2.48446 0
    endloop
  endfacet
  facet normal 0.321435 -0.946932 0
    outer loop
      vertex -0.669696 -2.38321 0
      vertex -0.452933 -2.30963 3
      vertex -0.669696 -2.38321 3
    endloop
  endfacet
  facet normal 0.321435 -0.946932 0
    outer loop
      vertex -0.452933 -2.30963 3
      vertex -0.669696 -2.38321 0
      vertex -0.452933 -2.30963 0
    endloop
  endfacet
  facet normal -0.997859 -0.0653969 0
    outer loop
      vertex 1.75 -4 0
      vertex 1.73503 -3.77158 3
      vertex 1.73503 -3.77158 0
    endloop
  endfacet
  facet normal -0.997859 -0.0653969 0
    outer loop
      vertex 1.73503 -3.77158 3
      vertex 1.75 -4 0
      vertex 1.75 -4 3
    endloop
  endfacet
  facet normal -0.0653969 0.997859 0
    outer loop
      vertex 0.22842 -5.73503 0
      vertex 0 -5.75 3
      vertex 0.22842 -5.73503 3
    endloop
  endfacet
  facet normal -0.0653969 0.997859 0
    outer loop
      vertex 0 -5.75 3
      vertex 0.22842 -5.73503 0
      vertex 0 -5.75 0
    endloop
  endfacet
  facet normal -0.831479 0.555557 0
    outer loop
      vertex 1.38837 -5.06533 0
      vertex 1.51554 -4.875 3
      vertex 1.51554 -4.875 0
    endloop
  endfacet
  facet normal -0.831479 0.555557 0
    outer loop
      vertex 1.51554 -4.875 3
      vertex 1.38837 -5.06533 0
      vertex 1.38837 -5.06533 3
    endloop
  endfacet
  facet normal -0.946935 0.321426 0
    outer loop
      vertex 1.61679 -4.6697 0
      vertex 1.69037 -4.45293 3
      vertex 1.69037 -4.45293 0
    endloop
  endfacet
  facet normal -0.946935 0.321426 0
    outer loop
      vertex 1.69037 -4.45293 3
      vertex 1.61679 -4.6697 0
      vertex 1.61679 -4.6697 3
    endloop
  endfacet
  facet normal 0.0653969 0.997859 -0
    outer loop
      vertex 0 -5.75 0
      vertex -0.22842 -5.73503 3
      vertex 0 -5.75 3
    endloop
  endfacet
  facet normal 0.0653969 0.997859 0
    outer loop
      vertex -0.22842 -5.73503 3
      vertex 0 -5.75 0
      vertex -0.22842 -5.73503 0
    endloop
  endfacet
  facet normal 0.65933 0.751854 -0
    outer loop
      vertex -1.06533 -5.38837 0
      vertex -1.23744 -5.23744 3
      vertex -1.06533 -5.38837 3
    endloop
  endfacet
  facet normal 0.65933 0.751854 0
    outer loop
      vertex -1.23744 -5.23744 3
      vertex -1.06533 -5.38837 0
      vertex -1.23744 -5.23744 0
    endloop
  endfacet
  facet normal 0.89686 0.442314 0
    outer loop
      vertex -1.51554 -4.875 3
      vertex -1.61679 -4.6697 0
      vertex -1.61679 -4.6697 3
    endloop
  endfacet
  facet normal 0.89686 0.442314 0
    outer loop
      vertex -1.61679 -4.6697 0
      vertex -1.51554 -4.875 3
      vertex -1.51554 -4.875 0
    endloop
  endfacet
  facet normal 0.997859 0.0653969 0
    outer loop
      vertex -1.73503 -4.22842 3
      vertex -1.75 -4 0
      vertex -1.75 -4 3
    endloop
  endfacet
  facet normal 0.997859 0.0653969 0
    outer loop
      vertex -1.75 -4 0
      vertex -1.73503 -4.22842 3
      vertex -1.73503 -4.22842 0
    endloop
  endfacet
  facet normal -0.980783 -0.1951 0
    outer loop
      vertex 1.73503 -3.77158 0
      vertex 1.69037 -3.54707 3
      vertex 1.69037 -3.54707 0
    endloop
  endfacet
  facet normal -0.980783 -0.1951 0
    outer loop
      vertex 1.69037 -3.54707 3
      vertex 1.73503 -3.77158 0
      vertex 1.73503 -3.77158 3
    endloop
  endfacet
  facet normal -0.946935 -0.321426 0
    outer loop
      vertex 1.69037 -3.54707 0
      vertex 1.61679 -3.3303 3
      vertex 1.61679 -3.3303 0
    endloop
  endfacet
  facet normal -0.946935 -0.321426 0
    outer loop
      vertex 1.61679 -3.3303 3
      vertex 1.69037 -3.54707 0
      vertex 1.69037 -3.54707 3
    endloop
  endfacet
  facet normal -0.751854 -0.65933 0
    outer loop
      vertex 1.38837 -2.93467 0
      vertex 1.23744 -2.76256 3
      vertex 1.23744 -2.76256 0
    endloop
  endfacet
  facet normal -0.751854 -0.65933 0
    outer loop
      vertex 1.23744 -2.76256 3
      vertex 1.38837 -2.93467 0
      vertex 1.38837 -2.93467 3
    endloop
  endfacet
  facet normal -0.65933 -0.751854 0
    outer loop
      vertex 1.06533 -2.61163 0
      vertex 1.23744 -2.76256 3
      vertex 1.06533 -2.61163 3
    endloop
  endfacet
  facet normal -0.65933 -0.751854 -0
    outer loop
      vertex 1.23744 -2.76256 3
      vertex 1.06533 -2.61163 0
      vertex 1.23744 -2.76256 0
    endloop
  endfacet
  facet normal -0.442307 -0.896864 0
    outer loop
      vertex 0.669696 -2.38321 0
      vertex 0.875 -2.48446 3
      vertex 0.669696 -2.38321 3
    endloop
  endfacet
  facet normal -0.442307 -0.896864 -0
    outer loop
      vertex 0.875 -2.48446 3
      vertex 0.669696 -2.38321 0
      vertex 0.875 -2.48446 0
    endloop
  endfacet
  facet normal 0.0653969 -0.997859 0
    outer loop
      vertex -0.22842 -2.26497 0
      vertex 0 -2.25 3
      vertex -0.22842 -2.26497 3
    endloop
  endfacet
  facet normal 0.0653969 -0.997859 0
    outer loop
      vertex 0 -2.25 3
      vertex -0.22842 -2.26497 0
      vertex 0 -2.25 0
    endloop
  endfacet
  facet normal 0.946935 -0.321426 0
    outer loop
      vertex -1.69037 -3.54707 3
      vertex -1.61679 -3.3303 0
      vertex -1.61679 -3.3303 3
    endloop
  endfacet
  facet normal 0.946935 -0.321426 0
    outer loop
      vertex -1.61679 -3.3303 0
      vertex -1.69037 -3.54707 3
      vertex -1.69037 -3.54707 0
    endloop
  endfacet
  facet normal 0.980783 -0.1951 0
    outer loop
      vertex -1.73503 -3.77158 3
      vertex -1.69037 -3.54707 0
      vertex -1.69037 -3.54707 3
    endloop
  endfacet
  facet normal 0.980783 -0.1951 0
    outer loop
      vertex -1.69037 -3.54707 0
      vertex -1.73503 -3.77158 3
      vertex -1.73503 -3.77158 0
    endloop
  endfacet
  facet normal 0.195097 -0.980784 0
    outer loop
      vertex -0.452933 -2.30963 0
      vertex -0.22842 -2.26497 3
      vertex -0.452933 -2.30963 3
    endloop
  endfacet
  facet normal 0.195097 -0.980784 0
    outer loop
      vertex -0.22842 -2.26497 3
      vertex -0.452933 -2.30963 0
      vertex -0.22842 -2.26497 0
    endloop
  endfacet
  facet normal 0.65933 -0.751854 0
    outer loop
      vertex -1.23744 -2.76256 0
      vertex -1.06533 -2.61163 3
      vertex -1.23744 -2.76256 3
    endloop
  endfacet
  facet normal 0.65933 -0.751854 0
    outer loop
      vertex -1.06533 -2.61163 3
      vertex -1.23744 -2.76256 0
      vertex -1.06533 -2.61163 0
    endloop
  endfacet
  facet normal 0.751854 -0.65933 0
    outer loop
      vertex -1.38837 -2.93467 3
      vertex -1.23744 -2.76256 0
      vertex -1.23744 -2.76256 3
    endloop
  endfacet
  facet normal 0.751854 -0.65933 0
    outer loop
      vertex -1.23744 -2.76256 0
      vertex -1.38837 -2.93467 3
      vertex -1.38837 -2.93467 0
    endloop
  endfacet
  facet normal -0.997859 0.0653969 0
    outer loop
      vertex 1.73503 -4.22842 0
      vertex 1.75 -4 3
      vertex 1.75 -4 0
    endloop
  endfacet
  facet normal -0.997859 0.0653969 0
    outer loop
      vertex 1.75 -4 3
      vertex 1.73503 -4.22842 0
      vertex 1.73503 -4.22842 3
    endloop
  endfacet
  facet normal -0.195097 0.980784 0
    outer loop
      vertex 0.452933 -5.69037 0
      vertex 0.22842 -5.73503 3
      vertex 0.452933 -5.69037 3
    endloop
  endfacet
  facet normal -0.195097 0.980784 0
    outer loop
      vertex 0.22842 -5.73503 3
      vertex 0.452933 -5.69037 0
      vertex 0.22842 -5.73503 0
    endloop
  endfacet
  facet normal -0.751854 0.65933 0
    outer loop
      vertex 1.23744 -5.23744 0
      vertex 1.38837 -5.06533 3
      vertex 1.38837 -5.06533 0
    endloop
  endfacet
  facet normal -0.751854 0.65933 0
    outer loop
      vertex 1.38837 -5.06533 3
      vertex 1.23744 -5.23744 0
      vertex 1.23744 -5.23744 3
    endloop
  endfacet
  facet normal -0.65933 0.751854 0
    outer loop
      vertex 1.23744 -5.23744 0
      vertex 1.06533 -5.38837 3
      vertex 1.23744 -5.23744 3
    endloop
  endfacet
  facet normal -0.65933 0.751854 0
    outer loop
      vertex 1.06533 -5.38837 3
      vertex 1.23744 -5.23744 0
      vertex 1.06533 -5.38837 0
    endloop
  endfacet
  facet normal -0.442307 0.896864 0
    outer loop
      vertex 0.875 -5.51554 0
      vertex 0.669696 -5.61679 3
      vertex 0.875 -5.51554 3
    endloop
  endfacet
  facet normal -0.442307 0.896864 0
    outer loop
      vertex 0.669696 -5.61679 3
      vertex 0.875 -5.51554 0
      vertex 0.669696 -5.61679 0
    endloop
  endfacet
  facet normal 0.321435 0.946932 -0
    outer loop
      vertex -0.452933 -5.69037 0
      vertex -0.669696 -5.61679 3
      vertex -0.452933 -5.69037 3
    endloop
  endfacet
  facet normal 0.321435 0.946932 0
    outer loop
      vertex -0.669696 -5.61679 3
      vertex -0.452933 -5.69037 0
      vertex -0.669696 -5.61679 0
    endloop
  endfacet
  facet normal 0.442307 0.896864 -0
    outer loop
      vertex -0.669696 -5.61679 0
      vertex -0.875 -5.51554 3
      vertex -0.669696 -5.61679 3
    endloop
  endfacet
  facet normal 0.442307 0.896864 0
    outer loop
      vertex -0.875 -5.51554 3
      vertex -0.669696 -5.61679 0
      vertex -0.875 -5.51554 0
    endloop
  endfacet
  facet normal 0.980783 0.1951 0
    outer loop
      vertex -1.69037 -4.45293 3
      vertex -1.73503 -4.22842 0
      vertex -1.73503 -4.22842 3
    endloop
  endfacet
  facet normal 0.980783 0.1951 0
    outer loop
      vertex -1.73503 -4.22842 0
      vertex -1.69037 -4.45293 3
      vertex -1.69037 -4.45293 0
    endloop
  endfacet
  facet normal 0.831479 0.555557 0
    outer loop
      vertex -1.38837 -5.06533 3
      vertex -1.51554 -4.875 0
      vertex -1.51554 -4.875 3
    endloop
  endfacet
  facet normal 0.831479 0.555557 0
    outer loop
      vertex -1.51554 -4.875 0
      vertex -1.38837 -5.06533 3
      vertex -1.38837 -5.06533 0
    endloop
  endfacet
  facet normal -0.980783 0.1951 0
    outer loop
      vertex 1.69037 -4.45293 0
      vertex 1.73503 -4.22842 3
      vertex 1.73503 -4.22842 0
    endloop
  endfacet
  facet normal -0.980783 0.1951 0
    outer loop
      vertex 1.73503 -4.22842 3
      vertex 1.69037 -4.45293 0
      vertex 1.69037 -4.45293 3
    endloop
  endfacet
  facet normal -0.89686 0.442314 0
    outer loop
      vertex 1.51554 -4.875 0
      vertex 1.61679 -4.6697 3
      vertex 1.61679 -4.6697 0
    endloop
  endfacet
  facet normal -0.89686 0.442314 0
    outer loop
      vertex 1.61679 -4.6697 3
      vertex 1.51554 -4.875 0
      vertex 1.51554 -4.875 3
    endloop
  endfacet
  facet normal -0.321435 0.946932 0
    outer loop
      vertex 0.669696 -5.61679 0
      vertex 0.452933 -5.69037 3
      vertex 0.669696 -5.61679 3
    endloop
  endfacet
  facet normal -0.321435 0.946932 0
    outer loop
      vertex 0.452933 -5.69037 3
      vertex 0.669696 -5.61679 0
      vertex 0.452933 -5.69037 0
    endloop
  endfacet
  facet normal -0.555557 0.831479 0
    outer loop
      vertex 1.06533 -5.38837 0
      vertex 0.875 -5.51554 3
      vertex 1.06533 -5.38837 3
    endloop
  endfacet
  facet normal -0.555557 0.831479 0
    outer loop
      vertex 0.875 -5.51554 3
      vertex 1.06533 -5.38837 0
      vertex 0.875 -5.51554 0
    endloop
  endfacet
  facet normal 0.195097 0.980784 -0
    outer loop
      vertex -0.22842 -5.73503 0
      vertex -0.452933 -5.69037 3
      vertex -0.22842 -5.73503 3
    endloop
  endfacet
  facet normal 0.195097 0.980784 0
    outer loop
      vertex -0.452933 -5.69037 3
      vertex -0.22842 -5.73503 0
      vertex -0.452933 -5.69037 0
    endloop
  endfacet
  facet normal 0.555557 0.831479 -0
    outer loop
      vertex -0.875 -5.51554 0
      vertex -1.06533 -5.38837 3
      vertex -0.875 -5.51554 3
    endloop
  endfacet
  facet normal 0.555557 0.831479 0
    outer loop
      vertex -1.06533 -5.38837 3
      vertex -0.875 -5.51554 0
      vertex -1.06533 -5.38837 0
    endloop
  endfacet
  facet normal 0.946935 0.321426 0
    outer loop
      vertex -1.61679 -4.6697 3
      vertex -1.69037 -4.45293 0
      vertex -1.69037 -4.45293 3
    endloop
  endfacet
  facet normal 0.946935 0.321426 0
    outer loop
      vertex -1.69037 -4.45293 0
      vertex -1.61679 -4.6697 3
      vertex -1.61679 -4.6697 0
    endloop
  endfacet
  facet normal 0.751854 0.65933 0
    outer loop
      vertex -1.23744 -5.23744 3
      vertex -1.38837 -5.06533 0
      vertex -1.38837 -5.06533 3
    endloop
  endfacet
  facet normal 0.751854 0.65933 0
    outer loop
      vertex -1.38837 -5.06533 0
      vertex -1.23744 -5.23744 3
      vertex -1.23744 -5.23744 0
    endloop
  endfacet
  facet normal -0.946935 -0.321426 0
    outer loop
      vertex 1.69037 4.45293 0
      vertex 1.61679 4.6697 3
      vertex 1.61679 4.6697 0
    endloop
  endfacet
  facet normal -0.946935 -0.321426 0
    outer loop
      vertex 1.61679 4.6697 3
      vertex 1.69037 4.45293 0
      vertex 1.69037 4.45293 3
    endloop
  endfacet
  facet normal -0.997859 -0.0653969 0
    outer loop
      vertex 1.75 4 0
      vertex 1.73503 4.22842 3
      vertex 1.73503 4.22842 0
    endloop
  endfacet
  facet normal -0.997859 -0.0653969 0
    outer loop
      vertex 1.73503 4.22842 3
      vertex 1.75 4 0
      vertex 1.75 4 3
    endloop
  endfacet
  facet normal 0.0653969 -0.997859 0
    outer loop
      vertex -0.22842 5.73503 0
      vertex 0 5.75 3
      vertex -0.22842 5.73503 3
    endloop
  endfacet
  facet normal 0.0653969 -0.997859 0
    outer loop
      vertex 0 5.75 3
      vertex -0.22842 5.73503 0
      vertex 0 5.75 0
    endloop
  endfacet
  facet normal -0.65933 -0.751854 0
    outer loop
      vertex 1.06533 5.38837 0
      vertex 1.23744 5.23744 3
      vertex 1.06533 5.38837 3
    endloop
  endfacet
  facet normal -0.65933 -0.751854 -0
    outer loop
      vertex 1.23744 5.23744 3
      vertex 1.06533 5.38837 0
      vertex 1.23744 5.23744 0
    endloop
  endfacet
  facet normal 0.751854 -0.65933 0
    outer loop
      vertex -1.38837 5.06533 3
      vertex -1.23744 5.23744 0
      vertex -1.23744 5.23744 3
    endloop
  endfacet
  facet normal 0.751854 -0.65933 0
    outer loop
      vertex -1.23744 5.23744 0
      vertex -1.38837 5.06533 3
      vertex -1.38837 5.06533 0
    endloop
  endfacet
  facet normal 0.442307 -0.896864 0
    outer loop
      vertex -0.875 5.51554 0
      vertex -0.669696 5.61679 3
      vertex -0.875 5.51554 3
    endloop
  endfacet
  facet normal 0.442307 -0.896864 0
    outer loop
      vertex -0.669696 5.61679 3
      vertex -0.875 5.51554 0
      vertex -0.669696 5.61679 0
    endloop
  endfacet
  facet normal -0.997859 0.0653969 0
    outer loop
      vertex 1.73503 3.77158 0
      vertex 1.75 4 3
      vertex 1.75 4 0
    endloop
  endfacet
  facet normal -0.997859 0.0653969 0
    outer loop
      vertex 1.75 4 3
      vertex 1.73503 3.77158 0
      vertex 1.73503 3.77158 3
    endloop
  endfacet
  facet normal 0.751854 0.65933 0
    outer loop
      vertex -1.23744 2.76256 3
      vertex -1.38837 2.93467 0
      vertex -1.38837 2.93467 3
    endloop
  endfacet
  facet normal 0.751854 0.65933 0
    outer loop
      vertex -1.38837 2.93467 0
      vertex -1.23744 2.76256 3
      vertex -1.23744 2.76256 0
    endloop
  endfacet
  facet normal -0.89686 -0.442314 0
    outer loop
      vertex 1.61679 4.6697 0
      vertex 1.51554 4.875 3
      vertex 1.51554 4.875 0
    endloop
  endfacet
  facet normal -0.89686 -0.442314 0
    outer loop
      vertex 1.51554 4.875 3
      vertex 1.61679 4.6697 0
      vertex 1.61679 4.6697 3
    endloop
  endfacet
  facet normal -0.831479 -0.555557 0
    outer loop
      vertex 1.51554 4.875 0
      vertex 1.38837 5.06533 3
      vertex 1.38837 5.06533 0
    endloop
  endfacet
  facet normal -0.831479 -0.555557 0
    outer loop
      vertex 1.38837 5.06533 3
      vertex 1.51554 4.875 0
      vertex 1.51554 4.875 3
    endloop
  endfacet
  facet normal -0.321435 -0.946932 0
    outer loop
      vertex 0.452933 5.69037 0
      vertex 0.669696 5.61679 3
      vertex 0.452933 5.69037 3
    endloop
  endfacet
  facet normal -0.321435 -0.946932 -0
    outer loop
      vertex 0.669696 5.61679 3
      vertex 0.452933 5.69037 0
      vertex 0.669696 5.61679 0
    endloop
  endfacet
  facet normal -0.0653969 -0.997859 0
    outer loop
      vertex 0 5.75 0
      vertex 0.22842 5.73503 3
      vertex 0 5.75 3
    endloop
  endfacet
  facet normal -0.0653969 -0.997859 -0
    outer loop
      vertex 0.22842 5.73503 3
      vertex 0 5.75 0
      vertex 0.22842 5.73503 0
    endloop
  endfacet
  facet normal -0.555557 -0.831479 0
    outer loop
      vertex 0.875 5.51554 0
      vertex 1.06533 5.38837 3
      vertex 0.875 5.51554 3
    endloop
  endfacet
  facet normal -0.555557 -0.831479 -0
    outer loop
      vertex 1.06533 5.38837 3
      vertex 0.875 5.51554 0
      vertex 1.06533 5.38837 0
    endloop
  endfacet
  facet normal 0.946935 -0.321426 0
    outer loop
      vertex -1.69037 4.45293 3
      vertex -1.61679 4.6697 0
      vertex -1.61679 4.6697 3
    endloop
  endfacet
  facet normal 0.946935 -0.321426 0
    outer loop
      vertex -1.61679 4.6697 0
      vertex -1.69037 4.45293 3
      vertex -1.69037 4.45293 0
    endloop
  endfacet
  facet normal 0.89686 -0.442314 0
    outer loop
      vertex -1.61679 4.6697 3
      vertex -1.51554 4.875 0
      vertex -1.51554 4.875 3
    endloop
  endfacet
  facet normal 0.89686 -0.442314 0
    outer loop
      vertex -1.51554 4.875 0
      vertex -1.61679 4.6697 3
      vertex -1.61679 4.6697 0
    endloop
  endfacet
  facet normal 0.997859 -0.0653969 0
    outer loop
      vertex -1.75 4 3
      vertex -1.73503 4.22842 0
      vertex -1.73503 4.22842 3
    endloop
  endfacet
  facet normal 0.997859 -0.0653969 0
    outer loop
      vertex -1.73503 4.22842 0
      vertex -1.75 4 3
      vertex -1.75 4 0
    endloop
  endfacet
  facet normal 0.555557 -0.831479 0
    outer loop
      vertex -1.06533 5.38837 0
      vertex -0.875 5.51554 3
      vertex -1.06533 5.38837 3
    endloop
  endfacet
  facet normal 0.555557 -0.831479 0
    outer loop
      vertex -0.875 5.51554 3
      vertex -1.06533 5.38837 0
      vertex -0.875 5.51554 0
    endloop
  endfacet
  facet normal 0.195097 -0.980784 0
    outer loop
      vertex -0.452933 5.69037 0
      vertex -0.22842 5.73503 3
      vertex -0.452933 5.69037 3
    endloop
  endfacet
  facet normal 0.195097 -0.980784 0
    outer loop
      vertex -0.22842 5.73503 3
      vertex -0.452933 5.69037 0
      vertex -0.22842 5.73503 0
    endloop
  endfacet
  facet normal -0.831479 0.555557 0
    outer loop
      vertex 1.38837 2.93467 0
      vertex 1.51554 3.125 3
      vertex 1.51554 3.125 0
    endloop
  endfacet
  facet normal -0.831479 0.555557 0
    outer loop
      vertex 1.51554 3.125 3
      vertex 1.38837 2.93467 0
      vertex 1.38837 2.93467 3
    endloop
  endfacet
  facet normal -0.751854 0.65933 0
    outer loop
      vertex 1.23744 2.76256 0
      vertex 1.38837 2.93467 3
      vertex 1.38837 2.93467 0
    endloop
  endfacet
  facet normal -0.751854 0.65933 0
    outer loop
      vertex 1.38837 2.93467 3
      vertex 1.23744 2.76256 0
      vertex 1.23744 2.76256 3
    endloop
  endfacet
  facet normal -0.555557 0.831479 0
    outer loop
      vertex 1.06533 2.61163 0
      vertex 0.875 2.48446 3
      vertex 1.06533 2.61163 3
    endloop
  endfacet
  facet normal -0.555557 0.831479 0
    outer loop
      vertex 0.875 2.48446 3
      vertex 1.06533 2.61163 0
      vertex 0.875 2.48446 0
    endloop
  endfacet
  facet normal 0.195097 0.980784 -0
    outer loop
      vertex -0.22842 2.26497 0
      vertex -0.452933 2.30963 3
      vertex -0.22842 2.26497 3
    endloop
  endfacet
  facet normal 0.195097 0.980784 0
    outer loop
      vertex -0.452933 2.30963 3
      vertex -0.22842 2.26497 0
      vertex -0.452933 2.30963 0
    endloop
  endfacet
  facet normal 0.946935 0.321426 0
    outer loop
      vertex -1.61679 3.3303 3
      vertex -1.69037 3.54707 0
      vertex -1.69037 3.54707 3
    endloop
  endfacet
  facet normal 0.946935 0.321426 0
    outer loop
      vertex -1.69037 3.54707 0
      vertex -1.61679 3.3303 3
      vertex -1.61679 3.3303 0
    endloop
  endfacet
  facet normal 0.831479 0.555557 0
    outer loop
      vertex -1.38837 2.93467 3
      vertex -1.51554 3.125 0
      vertex -1.51554 3.125 3
    endloop
  endfacet
  facet normal 0.831479 0.555557 0
    outer loop
      vertex -1.51554 3.125 0
      vertex -1.38837 2.93467 3
      vertex -1.38837 2.93467 0
    endloop
  endfacet
  facet normal -0.751854 -0.65933 0
    outer loop
      vertex 1.38837 5.06533 0
      vertex 1.23744 5.23744 3
      vertex 1.23744 5.23744 0
    endloop
  endfacet
  facet normal -0.751854 -0.65933 0
    outer loop
      vertex 1.23744 5.23744 3
      vertex 1.38837 5.06533 0
      vertex 1.38837 5.06533 3
    endloop
  endfacet
  facet normal -0.195097 -0.980784 0
    outer loop
      vertex 0.22842 5.73503 0
      vertex 0.452933 5.69037 3
      vertex 0.22842 5.73503 3
    endloop
  endfacet
  facet normal -0.195097 -0.980784 -0
    outer loop
      vertex 0.452933 5.69037 3
      vertex 0.22842 5.73503 0
      vertex 0.452933 5.69037 0
    endloop
  endfacet
  facet normal -0.442307 -0.896864 0
    outer loop
      vertex 0.669696 5.61679 0
      vertex 0.875 5.51554 3
      vertex 0.669696 5.61679 3
    endloop
  endfacet
  facet normal -0.442307 -0.896864 -0
    outer loop
      vertex 0.875 5.51554 3
      vertex 0.669696 5.61679 0
      vertex 0.875 5.51554 0
    endloop
  endfacet
  facet normal 0.831479 -0.555557 0
    outer loop
      vertex -1.51554 4.875 3
      vertex -1.38837 5.06533 0
      vertex -1.38837 5.06533 3
    endloop
  endfacet
  facet normal 0.831479 -0.555557 0
    outer loop
      vertex -1.38837 5.06533 0
      vertex -1.51554 4.875 3
      vertex -1.51554 4.875 0
    endloop
  endfacet
  facet normal 0.997859 0.0653969 0
    outer loop
      vertex -1.73503 3.77158 3
      vertex -1.75 4 0
      vertex -1.75 4 3
    endloop
  endfacet
  facet normal 0.997859 0.0653969 0
    outer loop
      vertex -1.75 4 0
      vertex -1.73503 3.77158 3
      vertex -1.73503 3.77158 0
    endloop
  endfacet
  facet normal 0.980783 -0.1951 0
    outer loop
      vertex -1.73503 4.22842 3
      vertex -1.69037 4.45293 0
      vertex -1.69037 4.45293 3
    endloop
  endfacet
  facet normal 0.980783 -0.1951 0
    outer loop
      vertex -1.69037 4.45293 0
      vertex -1.73503 4.22842 3
      vertex -1.73503 4.22842 0
    endloop
  endfacet
  facet normal 0.65933 -0.751854 0
    outer loop
      vertex -1.23744 5.23744 0
      vertex -1.06533 5.38837 3
      vertex -1.23744 5.23744 3
    endloop
  endfacet
  facet normal 0.65933 -0.751854 0
    outer loop
      vertex -1.06533 5.38837 3
      vertex -1.23744 5.23744 0
      vertex -1.06533 5.38837 0
    endloop
  endfacet
  facet normal 0.321435 -0.946932 0
    outer loop
      vertex -0.669696 5.61679 0
      vertex -0.452933 5.69037 3
      vertex -0.669696 5.61679 3
    endloop
  endfacet
  facet normal 0.321435 -0.946932 0
    outer loop
      vertex -0.452933 5.69037 3
      vertex -0.669696 5.61679 0
      vertex -0.452933 5.69037 0
    endloop
  endfacet
  facet normal -0.442307 0.896864 0
    outer loop
      vertex 0.875 2.48446 0
      vertex 0.669696 2.38321 3
      vertex 0.875 2.48446 3
    endloop
  endfacet
  facet normal -0.442307 0.896864 0
    outer loop
      vertex 0.669696 2.38321 3
      vertex 0.875 2.48446 0
      vertex 0.669696 2.38321 0
    endloop
  endfacet
  facet normal -0.195097 0.980784 0
    outer loop
      vertex 0.452933 2.30963 0
      vertex 0.22842 2.26497 3
      vertex 0.452933 2.30963 3
    endloop
  endfacet
  facet normal -0.195097 0.980784 0
    outer loop
      vertex 0.22842 2.26497 3
      vertex 0.452933 2.30963 0
      vertex 0.22842 2.26497 0
    endloop
  endfacet
  facet normal -0.321435 0.946932 0
    outer loop
      vertex 0.669696 2.38321 0
      vertex 0.452933 2.30963 3
      vertex 0.669696 2.38321 3
    endloop
  endfacet
  facet normal -0.321435 0.946932 0
    outer loop
      vertex 0.452933 2.30963 3
      vertex 0.669696 2.38321 0
      vertex 0.452933 2.30963 0
    endloop
  endfacet
  facet normal -0.65933 0.751854 0
    outer loop
      vertex 1.23744 2.76256 0
      vertex 1.06533 2.61163 3
      vertex 1.23744 2.76256 3
    endloop
  endfacet
  facet normal -0.65933 0.751854 0
    outer loop
      vertex 1.06533 2.61163 3
      vertex 1.23744 2.76256 0
      vertex 1.06533 2.61163 0
    endloop
  endfacet
  facet normal -0.946935 0.321426 0
    outer loop
      vertex 1.61679 3.3303 0
      vertex 1.69037 3.54707 3
      vertex 1.69037 3.54707 0
    endloop
  endfacet
  facet normal -0.946935 0.321426 0
    outer loop
      vertex 1.69037 3.54707 3
      vertex 1.61679 3.3303 0
      vertex 1.61679 3.3303 3
    endloop
  endfacet
  facet normal 0.0653969 0.997859 -0
    outer loop
      vertex 0 2.25 0
      vertex -0.22842 2.26497 3
      vertex 0 2.25 3
    endloop
  endfacet
  facet normal 0.0653969 0.997859 0
    outer loop
      vertex -0.22842 2.26497 3
      vertex 0 2.25 0
      vertex -0.22842 2.26497 0
    endloop
  endfacet
  facet normal 0.442307 0.896864 -0
    outer loop
      vertex -0.669696 2.38321 0
      vertex -0.875 2.48446 3
      vertex -0.669696 2.38321 3
    endloop
  endfacet
  facet normal 0.442307 0.896864 0
    outer loop
      vertex -0.875 2.48446 3
      vertex -0.669696 2.38321 0
      vertex -0.875 2.48446 0
    endloop
  endfacet
  facet normal 0.555557 0.831479 -0
    outer loop
      vertex -0.875 2.48446 0
      vertex -1.06533 2.61163 3
      vertex -0.875 2.48446 3
    endloop
  endfacet
  facet normal 0.555557 0.831479 0
    outer loop
      vertex -1.06533 2.61163 3
      vertex -0.875 2.48446 0
      vertex -1.06533 2.61163 0
    endloop
  endfacet
  facet normal 0.321435 0.946932 -0
    outer loop
      vertex -0.452933 2.30963 0
      vertex -0.669696 2.38321 3
      vertex -0.452933 2.30963 3
    endloop
  endfacet
  facet normal 0.321435 0.946932 0
    outer loop
      vertex -0.669696 2.38321 3
      vertex -0.452933 2.30963 0
      vertex -0.669696 2.38321 0
    endloop
  endfacet
  facet normal -0.0653969 0.997859 0
    outer loop
      vertex 0.22842 2.26497 0
      vertex 0 2.25 3
      vertex 0.22842 2.26497 3
    endloop
  endfacet
  facet normal -0.0653969 0.997859 0
    outer loop
      vertex 0 2.25 3
      vertex 0.22842 2.26497 0
      vertex 0 2.25 0
    endloop
  endfacet
  facet normal 0.65933 0.751854 -0
    outer loop
      vertex -1.06533 2.61163 0
      vertex -1.23744 2.76256 3
      vertex -1.06533 2.61163 3
    endloop
  endfacet
  facet normal 0.65933 0.751854 0
    outer loop
      vertex -1.23744 2.76256 3
      vertex -1.06533 2.61163 0
      vertex -1.23744 2.76256 0
    endloop
  endfacet
  facet normal 0.89686 0.442314 0
    outer loop
      vertex -1.51554 3.125 3
      vertex -1.61679 3.3303 0
      vertex -1.61679 3.3303 3
    endloop
  endfacet
  facet normal 0.89686 0.442314 0
    outer loop
      vertex -1.61679 3.3303 0
      vertex -1.51554 3.125 3
      vertex -1.51554 3.125 0
    endloop
  endfacet
  facet normal 0.980783 0.1951 0
    outer loop
      vertex -1.69037 3.54707 3
      vertex -1.73503 3.77158 0
      vertex -1.73503 3.77158 3
    endloop
  endfacet
  facet normal 0.980783 0.1951 0
    outer loop
      vertex -1.73503 3.77158 0
      vertex -1.69037 3.54707 3
      vertex -1.69037 3.54707 0
    endloop
  endfacet
  facet normal -0.980783 -0.1951 0
    outer loop
      vertex 1.73503 4.22842 0
      vertex 1.69037 4.45293 3
      vertex 1.69037 4.45293 0
    endloop
  endfacet
  facet normal -0.980783 -0.1951 0
    outer loop
      vertex 1.69037 4.45293 3
      vertex 1.73503 4.22842 0
      vertex 1.73503 4.22842 3
    endloop
  endfacet
  facet normal -0.89686 0.442314 0
    outer loop
      vertex 1.51554 3.125 0
      vertex 1.61679 3.3303 3
      vertex 1.61679 3.3303 0
    endloop
  endfacet
  facet normal -0.89686 0.442314 0
    outer loop
      vertex 1.61679 3.3303 3
      vertex 1.51554 3.125 0
      vertex 1.51554 3.125 3
    endloop
  endfacet
  facet normal -0.980783 0.1951 0
    outer loop
      vertex 1.69037 3.54707 0
      vertex 1.73503 3.77158 3
      vertex 1.73503 3.77158 0
    endloop
  endfacet
  facet normal -0.980783 0.1951 0
    outer loop
      vertex 1.73503 3.77158 3
      vertex 1.69037 3.54707 0
      vertex 1.69037 3.54707 3
    endloop
  endfacet
endsolid OpenSCAD_Model
